<?xml version="1.0" encoding="UTF-8"?>
<svg xmlns="http://www.w3.org/2000/svg" viewBox="0 0 1920 1080">
  <defs>
    <style>
      .cls-1 {
        fill: #999;
      }

      .cls-1, .cls-2 {
        stroke-width: 0px;
      }

      .cls-3 {
        letter-spacing: -.06em;
      }

      .cls-4 {
        font-family: MyriadPro-Regular, 'Myriad Pro';
        font-size: 150px;
      }

      .cls-4, .cls-2 {
        fill: #fff;
      }

      .cls-5 {
        stroke: #000;
        stroke-miterlimit: 10;
      }

      .cls-6 {
        letter-spacing: .02em;
      }
    </style>
  </defs>
  <g id="Layer_4" data-name="Layer 4">
    <rect id="Background" class="cls-1" width="1920" height="1080"/>
  </g>
  <g id="Layer_1" data-name="Layer 1">
    <polygon id="Left_Black_Arrow" data-name="Left Black Arrow" class="cls-5" points="89.67 39.67 89.67 1063.67 824.33 551.67 89.67 39.67"/>
    <polygon id="Middle_Black_Arrow" data-name="Middle Black Arrow" class="cls-5" points="592.15 27.67 592.15 1051.67 1326.81 539.67 592.15 27.67"/>
    <polygon id="Right_Black_Arrow" data-name="Right Black Arrow" class="cls-5" points="1172.15 27.67 1172.15 1051.67 1906.81 539.67 1172.15 27.67"/>
  </g>
  <g id="Layer_2" data-name="Layer 2">
    <text class="cls-4" transform="translate(94.65 592.92)"><tspan x="0" y="0">KEEP</tspan></text>
    <text class="cls-4" transform="translate(613.93 584.25)"><tspan x="0" y="0">MOVING</tspan></text>
    <text class="cls-4" transform="translate(1196.29 584.25)"><tspan x="0" y="0">FO</tspan><tspan class="cls-6" x="176.4" y="0">R</tspan><tspan class="cls-3" x="259.5" y="0">W</tspan><tspan x="377.85" y="0">ARD</tspan></text>
  </g>
  <g id="Layer_3" data-name="Layer 3">
    <polygon id="Top_Left_White_Arrow" data-name="Top Left White Arrow" class="cls-2" points="367 39.67 367 139.67 457 89.67 367 39.67"/>
    <polygon id="Bottom_Middle_White_Arrow" data-name="Bottom Middle White Arrow" class="cls-2" points="959.67 924 959.67 1024 1049.67 974 959.67 924"/>
    <polygon id="Bottom_Left_White_Arrow" data-name="Bottom Left White Arrow" class="cls-2" points="473.33 824 473.33 924 563.33 874 473.33 824"/>
    <polygon id="Top_Middle_White_Arrow" data-name="Top Middle White Arrow" class="cls-2" points="1049.67 220.33 1049.67 320.33 1139.67 270.33 1049.67 220.33"/>
    <polygon id="Bottom_Right_White_Arrow" data-name="Bottom Right White Arrow" class="cls-2" points="1765.33 716.33 1765.33 816.33 1855.33 766.33 1765.33 716.33"/>
    <polygon id="Top_Right_White_Arrow" data-name="Top Right White Arrow" class="cls-2" points="1589.33 59 1589.33 159 1679.33 109 1589.33 59"/>
  </g>
</svg>